<svg width="60" height="47" viewBox="0 0 60 47" fill="none" xmlns="http://www.w3.org/2000/svg">
<g filter="url(#filter0_d_42_26)">
<path d="M47.8503 15.7917H42.1206L40.5281 11.7833C38.8915 7.66226 34.9859 5 30.5768 5H18.4225C14.0144 5 10.1078 7.66226 8.47035 11.7833L6.87785 15.7917H1.14905C0.40161 15.7917 -0.146769 16.4989 0.0350674 17.2283L0.609287 19.5408C0.736572 20.0553 1.19595 20.4167 1.72327 20.4167H3.64404C2.35874 21.5469 1.53091 23.1897 1.53091 25.0417V29.6667C1.53091 31.2199 2.12044 32.6218 3.06216 33.7068V38.9167C3.06216 40.6192 4.43359 42 6.12466 42H9.18717C10.8782 42 12.2497 40.6192 12.2497 38.9167V35.8333H36.7497V38.9167C36.7497 40.6192 38.1211 42 39.8122 42H42.8747C44.5658 42 45.9372 40.6192 45.9372 38.9167V33.7068C46.8789 32.6228 47.4685 31.2209 47.4685 29.6667V25.0417C47.4685 23.1897 46.6406 21.5469 45.3563 20.4167H47.2771C47.8044 20.4167 48.2638 20.0553 48.391 19.5408L48.9653 17.2283C49.1461 16.4989 48.5978 15.7917 47.8503 15.7917ZM14.157 14.0737C14.8547 12.3181 16.5439 11.1667 18.4225 11.1667H30.5768C32.4555 11.1667 34.1447 12.3181 34.8423 14.0737L36.7497 18.875H12.2497L14.157 14.0737ZM9.18717 29.6474C7.34966 29.6474 6.12466 28.4179 6.12466 26.5737C6.12466 24.7295 7.34966 23.5 9.18717 23.5C11.0247 23.5 13.7809 26.2663 13.7809 28.1105C13.7809 29.9548 11.0247 29.6474 9.18717 29.6474ZM39.8122 29.6474C37.9747 29.6474 35.2184 29.9548 35.2184 28.1105C35.2184 26.2663 37.9747 23.5 39.8122 23.5C41.6497 23.5 42.8747 24.7295 42.8747 26.5737C42.8747 28.4179 41.6497 29.6474 39.8122 29.6474Z" fill="#6D6C6C"/>
</g>
<defs>
<filter id="filter0_d_42_26" x="0" y="0" width="60" height="47" filterUnits="userSpaceOnUse" color-interpolation-filters="sRGB">
<feFlood flood-opacity="0" result="BackgroundImageFix"/>
<feColorMatrix in="SourceAlpha" type="matrix" values="0 0 0 0 0 0 0 0 0 0 0 0 0 0 0 0 0 0 127 0" result="hardAlpha"/>
<feOffset dx="6"/>
<feGaussianBlur stdDeviation="2.5"/>
<feComposite in2="hardAlpha" operator="out"/>
<feColorMatrix type="matrix" values="0 0 0 0 0 0 0 0 0 0 0 0 0 0 0 0 0 0 0.25 0"/>
<feBlend mode="normal" in2="BackgroundImageFix" result="effect1_dropShadow_42_26"/>
<feBlend mode="normal" in="SourceGraphic" in2="effect1_dropShadow_42_26" result="shape"/>
</filter>
</defs>
</svg>
