<svg width="25" height="21" viewBox="0 0 25 21" fill="none" xmlns="http://www.w3.org/2000/svg">
<path d="M24.5264 7.35975C24.7168 7.20071 25 7.34948 25 7.60086V18.092C25 19.4515 23.9502 20.5544 22.6562 20.5544H2.34375C1.0498 20.5544 0 19.4515 0 18.092V7.60599C0 7.34949 0.27832 7.20584 0.473633 7.36487C1.56738 8.25752 3.01758 9.39128 7.99805 13.1927C9.02832 13.9827 10.7666 15.6449 12.5 15.6346C14.2432 15.65 16.0156 13.952 17.0068 13.1927C21.9873 9.39128 23.4326 8.25239 24.5264 7.35975ZM12.5 13.9879C13.6328 14.0084 15.2637 12.4899 16.084 11.864C22.5635 6.92368 23.0566 6.49275 24.5508 5.26152C24.834 5.03066 25 4.67156 25 4.29193V3.3172C25 1.95771 23.9502 0.854736 22.6562 0.854736H2.34375C1.0498 0.854736 0 1.95771 0 3.3172V4.29193C0 4.67156 0.166016 5.02553 0.449219 5.26152C1.94336 6.48762 2.43652 6.92368 8.91602 11.864C9.73633 12.4899 11.3672 14.0084 12.5 13.9879Z" fill="#0A4D68"/>
</svg>
