<svg width="28" height="19" viewBox="0 0 28 19" fill="none" xmlns="http://www.w3.org/2000/svg">
<path d="M27.3369 8.81562C24.7949 3.85578 19.7624 0.5 14 0.5C8.23765 0.5 3.20373 3.85813 0.6631 8.81609C0.555869 9.02821 0.5 9.26256 0.5 9.50023C0.5 9.73791 0.555869 9.97226 0.6631 10.1844C3.20514 15.1442 8.23765 18.5 14 18.5C19.7624 18.5 24.7963 15.1419 27.3369 10.1839C27.4441 9.97179 27.5 9.73744 27.5 9.49977C27.5 9.26209 27.4441 9.02774 27.3369 8.81562ZM14 16.25C12.665 16.25 11.3599 15.8541 10.2499 15.1124C9.13986 14.3707 8.27469 13.3165 7.7638 12.0831C7.25291 10.8497 7.11924 9.49251 7.37969 8.18314C7.64014 6.87377 8.28301 5.67103 9.22702 4.72703C10.171 3.78302 11.3738 3.14015 12.6831 2.8797C13.9925 2.61925 15.3497 2.75292 16.5831 3.26381C17.8165 3.7747 18.8707 4.63987 19.6124 5.7499C20.3541 6.85993 20.75 8.16498 20.75 9.5C20.7504 10.3865 20.5761 11.2645 20.2371 12.0836C19.898 12.9028 19.4008 13.6471 18.7739 14.2739C18.1471 14.9008 17.4028 15.398 16.5836 15.7371C15.7645 16.0761 14.8865 16.2504 14 16.25ZM14 5C13.5983 5.00561 13.1993 5.06537 12.8136 5.17766C13.1315 5.60969 13.2841 6.14135 13.2436 6.67622C13.2031 7.21109 12.9723 7.71376 12.593 8.09305C12.2138 8.47234 11.7111 8.70314 11.1762 8.74361C10.6413 8.78407 10.1097 8.63151 9.67765 8.31359C9.43163 9.21996 9.47604 10.1807 9.80462 11.0605C10.1332 11.9403 10.7294 12.6949 11.5093 13.2181C12.2893 13.7413 13.2136 14.0068 14.1523 13.9771C15.091 13.9475 15.9968 13.6242 16.7421 13.0528C17.4875 12.4814 18.0349 11.6907 18.3073 10.7919C18.5797 9.89308 18.5634 8.93149 18.2606 8.04246C17.9579 7.15342 17.384 6.3817 16.6197 5.83593C15.8554 5.29015 14.9392 4.99779 14 5Z" fill="#0A4D68"/>
</svg>
