<svg width="55" height="55" viewBox="0 0 55 55" fill="none" xmlns="http://www.w3.org/2000/svg">
<path d="M46.4062 3.4375H8.59375C7.22623 3.4375 5.91472 3.98075 4.94773 4.94773C3.98075 5.91472 3.4375 7.22623 3.4375 8.59375L3.4375 46.4062C3.4375 47.7738 3.98075 49.0853 4.94773 50.0523C5.91472 51.0193 7.22623 51.5625 8.59375 51.5625H23.3374V35.2011H16.5698V27.5H23.3374V21.6305C23.3374 14.9542 27.312 11.2664 33.3996 11.2664C36.315 11.2664 39.3637 11.7863 39.3637 11.7863V18.3391H36.0046C32.6949 18.3391 31.6626 20.393 31.6626 22.4995V27.5H39.0511L37.8694 35.2011H31.6626V51.5625H46.4062C47.7738 51.5625 49.0853 51.0193 50.0523 50.0523C51.0193 49.0853 51.5625 47.7738 51.5625 46.4062V8.59375C51.5625 7.22623 51.0193 5.91472 50.0523 4.94773C49.0853 3.98075 47.7738 3.4375 46.4062 3.4375Z" fill="#0A4D68"/>
</svg>
