<svg width="55" height="55" viewBox="0 0 55 55" fill="none" xmlns="http://www.w3.org/2000/svg">
<path d="M27.5107 15.1465C20.6787 15.1465 15.168 20.6572 15.168 27.4893C15.168 34.3213 20.6787 39.832 27.5107 39.832C34.3428 39.832 39.8535 34.3213 39.8535 27.4893C39.8535 20.6572 34.3428 15.1465 27.5107 15.1465ZM27.5107 35.5137C23.0957 35.5137 19.4863 31.915 19.4863 27.4893C19.4863 23.0635 23.085 19.4648 27.5107 19.4648C31.9365 19.4648 35.5352 23.0635 35.5352 27.4893C35.5352 31.915 31.9258 35.5137 27.5107 35.5137ZM43.2373 14.6416C43.2373 16.2422 41.9482 17.5205 40.3584 17.5205C38.7578 17.5205 37.4795 16.2314 37.4795 14.6416C37.4795 13.0518 38.7686 11.7627 40.3584 11.7627C41.9482 11.7627 43.2373 13.0518 43.2373 14.6416ZM51.4121 17.5635C51.2295 13.707 50.3486 10.291 47.5234 7.47656C44.709 4.66211 41.293 3.78125 37.4365 3.58789C33.4619 3.3623 21.5488 3.3623 17.5742 3.58789C13.7285 3.77051 10.3125 4.65137 7.4873 7.46582C4.66211 10.2803 3.79199 13.6963 3.59863 17.5527C3.37305 21.5273 3.37305 33.4404 3.59863 37.415C3.78125 41.2715 4.66211 44.6875 7.4873 47.502C10.3125 50.3164 13.7178 51.1973 17.5742 51.3906C21.5488 51.6162 33.4619 51.6162 37.4365 51.3906C41.293 51.208 44.709 50.3271 47.5234 47.502C50.3379 44.6875 51.2188 41.2715 51.4121 37.415C51.6377 33.4404 51.6377 21.5381 51.4121 17.5635ZM46.2773 41.6797C45.4395 43.7852 43.8174 45.4072 41.7012 46.2559C38.5322 47.5127 31.0127 47.2227 27.5107 47.2227C24.0088 47.2227 16.4785 47.502 13.3203 46.2559C11.2148 45.418 9.59277 43.7959 8.74414 41.6797C7.48731 38.5107 7.77734 30.9912 7.77734 27.4893C7.77734 23.9873 7.49805 16.457 8.74414 13.2988C9.58203 11.1934 11.2041 9.57129 13.3203 8.72266C16.4893 7.46582 24.0088 7.75586 27.5107 7.75586C31.0127 7.75586 38.543 7.47656 41.7012 8.72266C43.8066 9.56055 45.4287 11.1826 46.2773 13.2988C47.5342 16.4678 47.2441 23.9873 47.2441 27.4893C47.2441 30.9912 47.5342 38.5215 46.2773 41.6797Z" fill="#0A4D68"/>
</svg>
