<svg width="55" height="55" viewBox="0 0 55 55" fill="none" xmlns="http://www.w3.org/2000/svg">
<path d="M48.125 3.4375H6.86426C4.97363 3.4375 3.4375 4.99512 3.4375 6.90723V48.0928C3.4375 50.0049 4.97363 51.5625 6.86426 51.5625H48.125C50.0156 51.5625 51.5625 50.0049 51.5625 48.0928V6.90723C51.5625 4.99512 50.0156 3.4375 48.125 3.4375ZM17.9824 44.6875H10.8496V21.7207H17.9932V44.6875H17.9824ZM14.416 18.584C12.1279 18.584 10.2803 16.7256 10.2803 14.4482C10.2803 12.1709 12.1279 10.3125 14.416 10.3125C16.6934 10.3125 18.5518 12.1709 18.5518 14.4482C18.5518 16.7363 16.7041 18.584 14.416 18.584ZM44.7197 44.6875H37.5869V33.5156C37.5869 30.8516 37.5332 27.4248 33.8809 27.4248C30.1641 27.4248 29.5947 30.3252 29.5947 33.3223V44.6875H22.4619V21.7207H29.3047V24.8574H29.4014C30.3574 23.0527 32.6885 21.1514 36.1582 21.1514C43.377 21.1514 44.7197 25.9102 44.7197 32.0977V44.6875Z" fill="#0A4D68"/>
</svg>
