<svg width="25" height="27" viewBox="0 0 25 27" fill="none" xmlns="http://www.w3.org/2000/svg">
<path d="M24.2866 18.5604L18.8179 16.0979C18.5843 15.9933 18.3246 15.9712 18.078 16.0351C17.8315 16.0989 17.6113 16.2452 17.4507 16.4519L15.0288 19.5607C11.2279 17.6779 8.16904 14.4641 6.37695 10.4706L9.33594 7.9261C9.53305 7.75767 9.67256 7.52635 9.73335 7.26716C9.79414 7.00798 9.7729 6.73504 9.67285 6.48967L7.3291 0.743917C7.21929 0.479412 7.02508 0.263452 6.77996 0.133277C6.53483 0.00310124 6.25416 -0.0331306 5.98633 0.0308286L0.908203 1.26206C0.649985 1.32471 0.419602 1.47746 0.254656 1.69539C0.0897096 1.91333 -5.94829e-05 2.18356 2.95713e-08 2.462C2.95713e-08 15.6208 10.1514 26.2658 22.6562 26.2658C22.9213 26.266 23.1787 26.1717 23.3862 25.9984C23.5937 25.8251 23.7392 25.583 23.7988 25.3116L24.9707 19.9763C25.0312 19.6935 24.996 19.3974 24.8711 19.139C24.7463 18.8806 24.5396 18.676 24.2866 18.5604Z" fill="#0A4D68"/>
</svg>
